:SAMPLES-PER-SECOND 30
:FRAME-RANGE 1-668
:FULLY-SPECIFIED
:DEGREES
418
root  34.6635 39.2444 -49.2895 42.7145 -82.3508 -43.9752
RightUpLeg  -22.8912 -8.48888 0.757729
RightLeg  21.3845 -6.26371 -2.90582
RightFoot  1.74777 -1.38459 12.1316
RightToes  -1.33073e-015 0 -3.6325e-017
Spine  4.82329 0.66092 -0.619535
Spine1  3.72359 0.522369 0.560691
HEad  -7.90312 29.3425 -3.95264
LeftShoulder1  2.12446 -2.70873 -28.1199
LeftArm  8.75407 -38.711 -40.9104
LeftForeArm  11.6623 -1.73248 -18.0328
LeftHand  0.0214872 -2.03448 -0.163872
RightShoulder  14.5351 22.708 48.4159
RightArm  -7.93052 16.3212 11.031
RightForeArm  28.7789 -7.31124 15.2785
RightHand  -0.146399 4.27259 -2.07269
LeftUpLeg  3.37937 5.84596 -4.52546
LeftLeg  12.885 4.60773 -0.466136
LeftFoot  -17.7986 0.562191 8.0522
LeftToes  -2.73175e-012 1.00346e-010 -4.28452e-011
419
root  33.7038 39.1452 -49.3062 32.6816 -80.9073 -33.3395
RightUpLeg  -21.6536 -9.88178 1.69431
RightLeg  9.84196 -6.02333 0.662908
RightFoot  1.48654 -1.7011 15.1422
RightToes  -1.33073e-015 0 -3.6325e-017
Spine  4.46158 0.433679 -1.09363
Spine1  3.60061 0.220151 1.20086
HEad  -8.00693 28.1799 -4.00403
LeftShoulder1  2.12852 -2.75268 -27.9401
LeftArm  8.16234 -39.1958 -41.3138
LeftForeArm  14.2425 -4.49602 -16.9768
LeftHand  -0.0158241 -2.48573 0.433543
RightShoulder  14.5545 22.5589 48.7658
RightArm  -6.74537 16.164 11.4372
RightForeArm  28.054 -7.26691 15.383
RightHand  -0.152019 4.42193 -2.0818
LeftUpLeg  4.6218 5.97144 -4.22552
LeftLeg  12.5746 2.32086 -0.980254
LeftFoot  -18.7062 0.619487 7.8623
LeftToes  -2.73175e-012 1.00346e-010 -4.28452e-011
420
root  32.6467 38.9781 -49.2839 25.7193 -79.3315 -26.2457
RightUpLeg  -20.0125 -3.47143 -0.384059
RightLeg  1.84434 -11.7301 3.79435
RightFoot  1.27592 -1.80475 16.3027
RightToes  -1.33073e-015 0 -3.6325e-017
Spine  4.71835 0.251528 -1.14512
Spine1  3.27111 0.0125444 1.48493
HEad  -8.18543 26.9834 -3.96714
LeftShoulder1  2.11308 -2.72174 -27.8587
LeftArm  10.8453 -39.3052 -41.4697
LeftForeArm  12.9049 -7.62074 -15.8784
LeftHand  -0.0564491 -2.56268 1.03022
RightShoulder  14.5115 22.2638 49.1887
RightArm  -5.26871 15.7208 11.7318
RightForeArm  27.5725 -6.11209 15.6091
RightHand  -0.159863 4.60309 -2.14622
LeftUpLeg  6.27259 6.18111 -3.86016
LeftLeg  12.8707 0.164635 -1.20327
LeftFoot  -20.0327 0.702058 7.63932
LeftToes  -2.73175e-012 1.00346e-010 -4.28452e-011
421
root  31.5155 38.7689 -49.2221 21.6969 -77.7647 -22.305
RightUpLeg  -20.1078 -1.45697 0.277348
RightLeg  1.16087 -10.1221 3.25922
RightFoot  0.0452406 -1.46396 14.6143
RightToes  -1.33073e-015 0 -3.6325e-017
Spine  4.79145 0.178915 -0.513371
Spine1  3.58306 -0.0818332 1.54916
HEad  -8.50925 25.7966 -4.33696
LeftShoulder1  2.10835 -2.70159 -27.8934
LeftArm  13.0416 -39.2688 -41.2348
LeftForeArm  11.3806 -9.70395 -14.9669
LeftHand  -0.0690407 -2.71157 1.2036
RightShoulder  14.4495 22.0476 49.3988
RightArm  -3.4947 15.4129 11.9372
RightForeArm  27.2201 -4.81614 15.8698
RightHand  -0.188208 4.38926 -2.51592
LeftUpLeg  8.04001 6.23396 -3.4119
LeftLeg  13.5616 -1.59181 -1.05766
LeftFoot  -21.5257 0.776979 7.25451
LeftToes  -2.73175e-012 1.00346e-010 -4.28452e-011
422
root  30.3178 38.5698 -49.0836 19.4821 -75.725 -20.3477
RightUpLeg  -20.4041 -0.985072 1.6589
RightLeg  4.83473 -6.71527 1.98616
RightFoot  0.253574 -1.39606 13.7067
RightToes  -1.33073e-015 0 -3.6325e-017
Spine  4.7959 -0.106342 0.90972
Spine1  4.14441 -0.444408 1.72386
HEad  -8.30326 24.7545 -4.83018
LeftShoulder1  2.1031 -2.66676 -28.0028
LeftArm  13.1603 -38.698 -40.7158
LeftForeArm  11.4045 -10.039 -14.7797
LeftHand  -0.0964667 -2.6659 1.60325
RightShoulder  14.3153 21.8481 49.3288
RightArm  -2.21816 15.1278 12.1908
RightForeArm  28.1049 -4.43434 15.9626
RightHand  -0.210501 4.48224 -2.75984
LeftUpLeg  9.80671 5.61544 -2.79704
LeftLeg  14.6511 -2.67382 -0.546723
LeftFoot  -22.7322 0.801874 6.65987
LeftToes  -2.73175e-012 1.00346e-010 -4.28452e-011
423
root  29.0901 38.4852 -48.8929 19.1542 -73.4272 -20.385
RightUpLeg  -20.7296 -0.274492 3.15612
RightLeg  8.42322 -4.74516 0.975833
RightFoot  6.3888 -1.1301 7.51689
RightToes  -1.33073e-015 0 -3.6325e-017
Spine  5.08128 -0.380983 3.29659
Spine1  4.39088 -0.793839 2.04809
HEad  -7.58171 23.6132 -5.17734
LeftShoulder1  2.11338 -2.63723 -28.3425
LeftArm  12.8457 -37.7538 -39.8919
LeftForeArm  11.4677 -8.90232 -15.4341
LeftHand  -0.0632776 -2.5694 1.12977
RightShoulder  14.0406 21.3343 49.393
RightArm  -0.643409 14.5954 12.1483
RightForeArm  27.9526 -4.1651 16.1661
RightHand  -0.211632 4.43419 -2.78371
LeftUpLeg  11.406 4.11435 -1.59729
LeftLeg  16.0794 -2.93328 -0.433986
LeftFoot  -23.1226 0.642155 4.87261
LeftToes  -2.73175e-012 1.00346e-010 -4.28452e-011
424
root  27.8171 38.3732 -48.6289 19.5592 -71.8064 -21.0961
RightUpLeg  -21.8113 -0.459601 4.71498
RightLeg  14.999 -4.52361 -1.10458
RightFoot  4.46103 -0.734028 5.50473
RightToes  -1.33073e-015 0 -3.6325e-017
Spine  5.48953 -0.565941 6.33337
Spine1  4.22134 -0.645583 1.28223
HEad  -6.9153 22.6482 -5.67743
LeftShoulder1  2.12541 -2.551 -29.0464
LeftArm  11.5005 -36.4148 -38.789
LeftForeArm  11.707 -6.66305 -16.4988
LeftHand  -0.0195408 -2.53001 0.489255
RightShoulder  13.8153 20.7992 49.6815
RightArm  0.216684 14.0586 11.838
RightForeArm  27.2078 -4.54664 16.3552
RightHand  -0.213777 4.34368 -2.82951
LeftUpLeg  11.3831 3.0317 -0.280051
LeftLeg  20.6897 -2.91664 -0.885368
LeftFoot  -23.0071 0.306215 1.64447
LeftToes  -2.73175e-012 1.00346e-010 -4.28452e-011
425
root  26.6518 38.2721 -48.3794 18.5099 -70.112 -19.8776
RightUpLeg  -22.4993 -1.84339 5.14878
RightLeg  20.0147 -4.29501 -1.92541
RightFoot  1.0134 -0.573154 5.35477
RightToes  -1.33073e-015 0 -3.6325e-017
Spine  5.70295 -0.916796 8.01358
Spine1  4.4205 -0.830516 1.58818
HEad  -6.69605 22.0414 -6.60915
LeftShoulder1  2.10585 -2.44097 -29.3724
LeftArm  8.1844 -34.4444 -37.7983
LeftForeArm  11.7135 -3.47618 -17.5181
LeftHand  0.0675812 -2.28438 -0.837495
RightShoulder  13.7856 20.7021 49.7753
RightArm  -0.071176 13.5145 11.6024
RightForeArm  27.3947 -5.67912 16.3393
RightHand  -0.163696 4.93067 -2.14065
LeftUpLeg  8.25038 3.56102 1.26159
LeftLeg  29.7491 -4.06226 -2.16323
LeftFoot  -20.3629 -0.172976 -3.73925
LeftToes  -2.73175e-012 1.00346e-010 -4.28452e-011
426
root  25.623 38.2271 -48.1574 18.0044 -67.0918 -18.775
RightUpLeg  -22.6702 -4.77509 5.76669
RightLeg  22.818 -4.13846 -2.06681
RightFoot  -2.07016 -0.434626 5.1816
RightToes  -1.33073e-015 0 -3.6325e-017
Spine  5.57248 -1.54544 9.42944
Spine1  4.88026 -1.59289 3.24651
HEad  -6.84843 21.2526 -7.53067
LeftShoulder1  2.12596 -2.49358 -29.3978
LeftArm  8.6763 -32.7386 -37.3731
LeftForeArm  8.0051 -0.833831 -18.484
LeftHand  0.13552 -1.98494 -1.97099
RightShoulder  13.5865 20.5559 49.3557
RightArm  -1.76769 12.8322 11.5939
RightForeArm  28.2295 -6.61418 16.0377
RightHand  -0.135044 4.86101 -1.82693
LeftUpLeg  2.06474 4.242 3.81141
LeftLeg  41.2023 -4.69061 -4.00907
LeftFoot  -12.312 -0.0116975 -10.0486
LeftToes  -2.73175e-012 1.00346e-010 -4.28452e-011
427
root  24.6664 38.1729 -47.9375 17.5455 -64.2367 -17.9243
RightUpLeg  -22.4466 -7.16355 6.21569
RightLeg  25.1215 -4.22728 -2.25713
RightFoot  -5.02237 -0.353277 5.77451
RightToes  -1.33073e-015 0 -3.6325e-017
Spine  5.76341 -1.84319 11.0182
Spine1  5.17464 -1.84823 4.30063
HEad  -7.18316 19.465 -7.53657
LeftShoulder1  2.139 -2.55527 -29.2501
LeftArm  13.8733 -32.0373 -37.5164
LeftForeArm  1.71086 0.318673 -19.4093
LeftHand  0.201804 -1.77825 -3.12418
RightShoulder  13.1987 19.9785 49.135
RightArm  -2.08192 12.0781 11.2061
RightForeArm  27.4384 -6.66152 16.0433
RightHand  -0.120379 4.78749 -1.66859
LeftUpLeg  -5.03712 4.56395 5.85406
LeftLeg  52.0159 -4.17539 -5.27271
LeftFoot  -0.971358 1.07116 -11.7098
LeftToes  -2.73175e-012 1.00346e-010 -4.28452e-011
428
root  23.7279 38.149 -47.6791 16.7213 -62.6013 -17.0274
RightUpLeg  -21.5318 -8.57483 6.14172
RightLeg  26.815 -4.34552 -2.30596
RightFoot  -7.73839 -0.257666 6.51043
RightToes  -1.33073e-015 0 -3.6325e-017
Spine  6.2083 -1.70592 12.5028
Spine1  5.5726 -1.45677 4.54217
HEad  -7.5537 17.6233 -7.2673
LeftShoulder1  2.14588 -2.59554 -29.1278
LeftArm  16.3601 -31.4994 -37.1104
LeftForeArm  -0.0564222 -0.557317 -19.5489
LeftHand  0.22862 -1.67882 -3.6195
RightShoulder  12.9473 19.5244 49.157
RightArm  -1.82503 11.6098 10.7111
RightForeArm  26.9105 -6.57127 16.1504
RightHand  -0.172808 4.64537 -2.28935
LeftUpLeg  -10.6579 5.98808 7.04242
LeftLeg  59.0835 -2.68614 -4.31182
LeftFoot  3.90084 1.43024 -10.8424
LeftToes  -2.73175e-012 1.00346e-010 -4.28452e-011
429
root  22.6986 38.4007 -47.3538 14.2146 -61.8161 -14.3467
RightUpLeg  -19.0792 -9.61333 4.77331
RightLeg  26.1473 -4.23357 -1.76398
RightFoot  -9.27993 -0.180216 6.50162
RightToes  -1.33073e-015 0 -3.6325e-017
Spine  6.50617 -1.42792 12.297
Spine1  5.65575 -1.10687 4.25263
HEad  -8.03234 16.4224 -7.29136
LeftShoulder1  2.12959 -2.54174 -29.1718
LeftArm  17.684 -30.3257 -35.816
LeftForeArm  -1.8913 -1.04203 -19.6303
LeftHand  0.235692 -1.5752 -3.80177
RightShoulder  12.8837 19.414 49.153
RightArm  -2.00029 11.5274 10.3616
RightForeArm  27.3026 -6.50667 16.1807
RightHand  -0.186723 4.57538 -2.46307
LeftUpLeg  -15.2314 8.53341 6.47193
LeftLeg  62.6011 -0.569369 -0.594313
LeftFoot  1.73722 0.998636 -8.79257
LeftToes  -2.73175e-012 1.00346e-010 -4.28452e-011
430
root  21.674 38.6661 -46.9734 11.7103 -60.9551 -11.5937
RightUpLeg  -16.3003 -10.2437 3.05145
RightLeg  24.8965 -4.71412 -1.16896
RightFoot  -10.626 -0.115374 6.89998
RightToes  -1.33073e-015 0 -3.6325e-017
Spine  6.77853 -1.28864 12.0678
Spine1  5.26256 -0.880492 3.58688
HEad  -8.00819 15.5633 -7.23106
LeftShoulder1  2.08935 -2.42763 -29.1699
LeftArm  17.0777 -29.1 -33.9217
LeftForeArm  -2.30791 -0.853295 -19.6525
LeftHand  0.245749 -1.72921 -3.86924
RightShoulder  12.7906 19.2486 49.1553
RightArm  -2.72425 11.2154 10.3463
RightForeArm  27.4716 -6.66096 16.0419
RightHand  -0.193308 4.58104 -2.53858
LeftUpLeg  -19.2573 10.6295 5.12528
LeftLeg  62.7422 0.465226 1.59127
LeftFoot  0.604923 0.72085 -6.92041
LeftToes  -2.73175e-012 1.00346e-010 -4.28452e-011
